<svg xmlns="http://www.w3.org/2000/svg" viewBox="0 0 512 512">
  
<path fill="#fff" d="M 444.6 179.282 L 374.116 82.218 L 260.06 45.253 L 260.06 137.905 L 356.444 207.936 L 444.6 179.282 Z"></path>
<path fill="#fff" d="M 240.98 45.253 L 126.925 82.218 L 56.441 179.282 L 144.597 207.9 L 240.98 137.869 L 240.98 45.253 Z"></path>
<path fill="#fff" d="M 194.399 331.318 L 309.397 331.318 L 344.907 221.948 L 251.898 154.35 L 158.889 221.949 L 194.399 331.318 Z"></path>
<path fill="#fff" d="M 140.034 224.899 L 50.431 197.419 L 50.431 317.353 L 120.915 414.369 L 175.397 339.377 L 140.034 224.899 Z"></path>
<path fill="#fff" d="M 361.605 224.899 L 325.953 340.219 L 380.888 416.867 L 450.432 317.294 L 450.656 199.45 L 361.605 224.899 Z"></path>
<path fill="#fff" d="M 190.899 350.598 L 136.465 425.638 L 250.52 462.603 L 364.576 425.638 L 310.142 350.598 L 190.899 350.598 Z"></path>

</svg>