<svg xmlns="http://www.w3.org/2000/svg" viewBox="0 0 512 512">
  

<path fill="#fff" d="M 248.382 20.536 L 74.102 132.836 L 248.382 132.656 L 248.382 20.536 Z"></path>
<path fill="#fff" d="M 263.352 20.536 L 263.352 132.656 L 441.472 132.836 L 263.352 20.536 Z"></path>
<path fill="#fff" d="M 244.773 147.626 L 57.479 147.626 L 128.372 342.136 L 244.773 147.626 Z"></path>
<path fill="#fff" d="M 270.438 147.626 L 386.372 342.236 L 457.962 147.626 L 270.438 147.626 Z"></path>
<path fill="#fff" d="M 256.972 160.636 L 140.672 352.836 L 374.872 352.836 L 256.972 160.636 Z"></path>
<path fill="#fff" d="M 53.772 186.236 L 53.772 359.436 L 115.672 353.736 L 53.772 186.236 Z"></path>
<path fill="#fff" d="M 461.455 184.018 L 399.872 353.736 L 461.772 359.436 L 461.455 184.018 Z"></path>
<path fill="#fff" d="M 144.972 369.336 L 257.772 491.936 L 370.572 368.836 L 144.972 369.336 Z"></path>
<path fill="#fff" d="M 65.877 374.546 L 125.74 368.78 L 225.334 477.149 L 65.877 374.546 Z" style="stroke-width: 1;"></path>
<path fill="#fff" d="M 387.303 368.656 L 293.292 476.966 L 449.579 374.02 L 387.303 368.656 Z" style="stroke-width: 1;"></path>



</svg>